<svg xmlns="http://www.w3.org/2000/svg" width="40" height="54" viewBox="0 0 40 54">
  <g fill="none" fill-rule="evenodd">
    <path fill="#F0F0F0" fill-opacity=".264" d="M5,11 L35,11 C37.7614237,11 40,13.2385763 40,16 L40,46 C40,48.7614237 37.7614237,51 35,51 L5,51 C2.23857625,51 3.38176876e-16,48.7614237 0,46 L0,16 C-3.38176876e-16,13.2385763 2.23857625,11 5,11 Z M29.3590322,25.9421296 C27.9391603,23.7726852 25.73218,23.5231481 24.8722575,23.5231481 C22.879104,23.5231481 21.0710621,24.6689815 20.1290958,24.6689815 C19.1461075,24.6689815 17.766232,23.4686574 16.1550954,23.5231481 C14.052721,23.5638889 12.1062299,24.8518056 11.0273529,26.6688426 C10.2628065,27.9705093 9.97411461,29.5023611 10.0018044,31.061713 C10.0428264,34.0037037 11.1693914,37.0679167 12.5343964,39.0199074 C13.5855836,40.5110185 14.7326596,42.1111111 16.4114825,42.1111111 C17.9267304,42.1111111 18.527189,41.0925926 20.5064976,41.0925926 C22.349921,41.0925926 22.8903851,42.1111111 24.4876769,42.1111111 C26.1664997,42.1111111 27.3048586,40.5925 28.3022045,39.0876389 C29.5579886,37.3388426 29.9456459,35.685787 30,35.6180556 C29.9456459,35.6180556 26.8136208,34.3291204 26.6910678,30.6955556 C26.6910678,27.5096296 29.2498113,26.0098611 29.3590322,25.9421296 Z M20.0019278,23.2659722 C21.3259109,23.4284259 22.7709087,22.5840741 23.5903219,21.4861111 C24.5322882,20.4691204 24.9543014,19.0900463 24.8722575,17.6666667 C23.5887836,17.6666667 22.2248041,18.3511111 21.2828378,19.4490741 C20.5459812,20.3575926 19.7147742,21.8420833 20.0019278,23.2659722 Z"/>
    <path fill="#F0F0F0" d="M20.0019278,23.2659722 C19.7147742,21.8420833 20.5459812,20.3575926 21.2828378,19.4490741 C22.2248041,18.3511111 23.5887836,17.6666667 24.8722575,17.6666667 C24.9543014,19.0900463 24.5322882,20.4691204 23.5903219,21.4861111 C22.7709087,22.5840741 21.3259109,23.4284259 20.0019278,23.2659722 Z M29.3590322,25.9421296 C29.2498113,26.0098611 26.6910678,27.5096296 26.6910678,30.6955556 C26.8136208,34.3291204 29.9456459,35.6180556 30,35.6180556 C29.9456459,35.685787 29.5579886,37.3388426 28.3022045,39.0876389 C27.3048586,40.5925 26.1664997,42.1111111 24.4876769,42.1111111 C22.8903851,42.1111111 22.349921,41.0925926 20.5064976,41.0925926 C18.527189,41.0925926 17.9267304,42.1111111 16.4114825,42.1111111 C14.7326596,42.1111111 13.5855836,40.5110185 12.5343964,39.0199074 C11.1693914,37.0679167 10.0428264,34.0037037 10.0018044,31.061713 C9.97411461,29.5023611 10.2628065,27.9705093 11.0273529,26.6688426 C12.1062299,24.8518056 14.052721,23.5638889 16.1550954,23.5231481 C17.766232,23.4686574 19.1461075,24.6689815 20.1290958,24.6689815 C21.0710621,24.6689815 22.879104,23.5231481 24.8722575,23.5231481 C25.73218,23.5231481 27.9391603,23.7726852 29.3590322,25.9421296 Z"/>
  </g>
</svg>
