<?xml version="1.0" encoding="UTF-8"?>
<svg width="45px" height="45px" viewBox="0 0 45 45" version="1.1" xmlns="http://www.w3.org/2000/svg" xmlns:xlink="http://www.w3.org/1999/xlink">
    <!-- Generator: Sketch 55.1 (78136) - https://sketchapp.com -->
    <title>icon / device / ipad</title>
    <desc>Created with Sketch.</desc>
    <g id="icon-/-device-/-ipad" stroke="none" stroke-width="1" fill="none" fill-rule="evenodd">
        <path d="M9.45085949,1 L35.4912415,1 C36.8448138,1 37.942101,2.09728717 37.942101,3.45085949 L37.942101,40.8264666 C37.942101,42.180039 36.8448138,43.2773261 35.4912415,43.2773261 L9.45085949,43.2773261 C8.09728717,43.2773261 7,42.180039 7,40.8264666 L7,3.45085949 C7,2.09728717 8.09728717,1 9.45085949,1 Z M9.45085949,2.53178718 C8.94326988,2.53178718 8.53178718,2.94326988 8.53178718,3.45085949 L8.53178718,40.8264666 C8.53178718,41.3340562 8.94326988,41.7455389 9.45085949,41.7455389 L35.4912415,41.7455389 C35.9988311,41.7455389 36.4103138,41.3340562 36.4103138,40.8264666 L36.4103138,3.45085949 C36.4103138,2.94326988 35.9988311,2.53178718 35.4912415,2.53178718 L9.45085949,2.53178718 Z" id="Combined-Shape" fill="#FFFFFF" fill-rule="nonzero"></path>
        <path d="M9.45085949,2.53178718 C8.94326988,2.53178718 8.53178718,2.94326988 8.53178718,3.45085949 L8.53178718,40.8264666 C8.53178718,41.3340562 8.94326988,41.7455389 9.45085949,41.7455389 L35.4912415,41.7455389 C35.9988311,41.7455389 36.4103138,41.3340562 36.4103138,40.8264666 L36.4103138,3.45085949 C36.4103138,2.94326988 35.9988311,2.53178718 35.4912415,2.53178718 L9.45085949,2.53178718 Z" id="Rectangle-Copy-3-path" fill-opacity="0.35" fill="#FFFFFF" fill-rule="nonzero"></path>
    </g>
</svg>